<svg width="80" height="34" viewBox="0 0 80 34" fill="none" xmlns="http://www.w3.org/2000/svg">
<path d="M3.75 7.345C3.75 7.795 3.835 8.21 4.005 8.59C4.175 8.97 4.405 9.3 4.695 9.58C4.985 9.86 5.32 10.08 5.7 10.24C6.09 10.39 6.5 10.465 6.93 10.465C7.36 10.465 7.765 10.39 8.145 10.24C8.535 10.08 8.875 9.86 9.165 9.58C9.465 9.3 9.7 8.97 9.87 8.59C10.04 8.21 10.125 7.795 10.125 7.345C10.125 6.895 10.04 6.48 9.87 6.1C9.7 5.72 9.465 5.39 9.165 5.11C8.875 4.83 8.535 4.615 8.145 4.465C7.765 4.305 7.36 4.225 6.93 4.225C6.5 4.225 6.09 4.305 5.7 4.465C5.32 4.615 4.985 4.83 4.695 5.11C4.405 5.39 4.175 5.72 4.005 6.1C3.835 6.48 3.75 6.895 3.75 7.345ZM0.675 7.345C0.675 6.505 0.83 5.725 1.14 5.005C1.45 4.275 1.88 3.64 2.43 3.1C2.98 2.56 3.635 2.14 4.395 1.84C5.165 1.53 6.01 1.375 6.93 1.375C7.84 1.375 8.68 1.53 9.45 1.84C10.22 2.14 10.88 2.56 11.43 3.1C11.99 3.64 12.425 4.275 12.735 5.005C13.045 5.725 13.2 6.505 13.2 7.345C13.2 8.185 13.045 8.97 12.735 9.7C12.425 10.42 11.99 11.05 11.43 11.59C10.88 12.13 10.22 12.555 9.45 12.865C8.68 13.165 7.84 13.315 6.93 13.315C6.01 13.315 5.165 13.165 4.395 12.865C3.635 12.555 2.98 12.13 2.43 11.59C1.88 11.05 1.45 10.42 1.14 9.7C0.83 8.97 0.675 8.185 0.675 7.345ZM17.6671 0.549999V13H14.9521V0.549999H17.6671ZM22.3874 5.305V13H19.6724V5.305H22.3874ZM19.4924 2.35C19.4924 2.14 19.5324 1.945 19.6124 1.765C19.6924 1.575 19.8024 1.41 19.9424 1.27C20.0824 1.13 20.2424 1.02 20.4224 0.94C20.6124 0.86 20.8124 0.819999 21.0224 0.819999C21.2324 0.819999 21.4274 0.86 21.6074 0.94C21.7974 1.02 21.9624 1.13 22.1024 1.27C22.2424 1.41 22.3524 1.575 22.4324 1.765C22.5124 1.945 22.5524 2.14 22.5524 2.35C22.5524 2.56 22.5124 2.76 22.4324 2.95C22.3524 3.13 22.2424 3.29 22.1024 3.43C21.9624 3.57 21.7974 3.68 21.6074 3.76C21.4274 3.84 21.2324 3.88 21.0224 3.88C20.8124 3.88 20.6124 3.84 20.4224 3.76C20.2424 3.68 20.0824 3.57 19.9424 3.43C19.8024 3.29 19.6924 3.13 19.6124 2.95C19.5324 2.76 19.4924 2.56 19.4924 2.35ZM26.6692 5.305L28.4992 9.25L30.3592 5.305H33.3892L29.3842 13H27.5692L23.6092 5.305H26.6692ZM39.7331 8.035C39.6431 7.655 39.4581 7.35 39.1781 7.12C38.8981 6.89 38.5581 6.775 38.1581 6.775C37.7381 6.775 37.3931 6.885 37.1231 7.105C36.8631 7.325 36.6981 7.635 36.6281 8.035H39.7331ZM36.5531 9.61C36.5531 10.78 37.1031 11.365 38.2031 11.365C38.7931 11.365 39.2381 11.125 39.5381 10.645H42.1631C41.6331 12.405 40.3081 13.285 38.1881 13.285C37.5381 13.285 36.9431 13.19 36.4031 13C35.8631 12.8 35.3981 12.52 35.0081 12.16C34.6281 11.8 34.3331 11.37 34.1231 10.87C33.9131 10.37 33.8081 9.81 33.8081 9.19C33.8081 8.55 33.9081 7.975 34.1081 7.465C34.3081 6.945 34.5931 6.505 34.9631 6.145C35.3331 5.785 35.7781 5.51 36.2981 5.32C36.8281 5.12 37.4231 5.02 38.0831 5.02C38.7331 5.02 39.3181 5.12 39.8381 5.32C40.3581 5.51 40.7981 5.79 41.1581 6.16C41.5181 6.53 41.7931 6.985 41.9831 7.525C42.1731 8.055 42.2681 8.655 42.2681 9.325V9.61H36.5531ZM43.97 5.305H46.685V6.565C46.975 6.105 47.33 5.755 47.75 5.515C48.17 5.265 48.66 5.14 49.22 5.14C49.29 5.14 49.365 5.14 49.445 5.14C49.535 5.14 49.635 5.15 49.745 5.17V7.765C49.385 7.585 48.995 7.495 48.575 7.495C47.945 7.495 47.47 7.685 47.15 8.065C46.84 8.435 46.685 8.98 46.685 9.7V13H43.97V5.305ZM13.5703 21.69L15.5203 28.995L17.9203 21.69H20.2603L22.6603 28.995L24.6103 21.69H27.6853L24.3103 33H21.3103L19.0903 26.445L16.8703 33H13.8703L10.4953 21.69H13.5703ZM31.7366 25.305V33H29.0216V25.305H31.7366ZM28.8416 22.35C28.8416 22.14 28.8816 21.945 28.9616 21.765C29.0416 21.575 29.1516 21.41 29.2916 21.27C29.4316 21.13 29.5916 21.02 29.7716 20.94C29.9616 20.86 30.1616 20.82 30.3716 20.82C30.5816 20.82 30.7766 20.86 30.9566 20.94C31.1466 21.02 31.3116 21.13 31.4516 21.27C31.5916 21.41 31.7016 21.575 31.7816 21.765C31.8616 21.945 31.9016 22.14 31.9016 22.35C31.9016 22.56 31.8616 22.76 31.7816 22.95C31.7016 23.13 31.5916 23.29 31.4516 23.43C31.3116 23.57 31.1466 23.68 30.9566 23.76C30.7766 23.84 30.5816 23.88 30.3716 23.88C30.1616 23.88 29.9616 23.84 29.7716 23.76C29.5916 23.68 29.4316 23.57 29.2916 23.43C29.1516 23.29 29.0416 23.13 28.9616 22.95C28.8816 22.76 28.8416 22.56 28.8416 22.35ZM36.4569 20.55V33H33.7419V20.55H36.4569ZM41.1772 20.55V33H38.4622V20.55H41.1772ZM45.8975 25.305V33H43.1825V25.305H45.8975ZM43.0025 22.35C43.0025 22.14 43.0425 21.945 43.1225 21.765C43.2025 21.575 43.3125 21.41 43.4525 21.27C43.5925 21.13 43.7525 21.02 43.9325 20.94C44.1225 20.86 44.3225 20.82 44.5325 20.82C44.7425 20.82 44.9375 20.86 45.1175 20.94C45.3075 21.02 45.4725 21.13 45.6125 21.27C45.7525 21.41 45.8625 21.575 45.9425 21.765C46.0225 21.945 46.0625 22.14 46.0625 22.35C46.0625 22.56 46.0225 22.76 45.9425 22.95C45.8625 23.13 45.7525 23.29 45.6125 23.43C45.4725 23.57 45.3075 23.68 45.1175 23.76C44.9375 23.84 44.7425 23.88 44.5325 23.88C44.3225 23.88 44.1225 23.84 43.9325 23.76C43.7525 23.68 43.5925 23.57 43.4525 23.43C43.3125 23.29 43.2025 23.13 43.1225 22.95C43.0425 22.76 43.0025 22.56 43.0025 22.35ZM50.4229 29.13C50.4229 29.38 50.4679 29.615 50.5579 29.835C50.6479 30.045 50.7679 30.23 50.9179 30.39C51.0779 30.55 51.2629 30.675 51.4729 30.765C51.6929 30.855 51.9279 30.9 52.1779 30.9C52.4179 30.9 52.6429 30.855 52.8529 30.765C53.0729 30.675 53.2579 30.55 53.4079 30.39C53.5679 30.23 53.6929 30.045 53.7829 29.835C53.8829 29.625 53.9329 29.4 53.9329 29.16C53.9329 28.92 53.8829 28.695 53.7829 28.485C53.6929 28.265 53.5679 28.075 53.4079 27.915C53.2579 27.755 53.0729 27.63 52.8529 27.54C52.6429 27.45 52.4179 27.405 52.1779 27.405C51.9279 27.405 51.6929 27.45 51.4729 27.54C51.2629 27.63 51.0779 27.755 50.9179 27.915C50.7679 28.075 50.6479 28.26 50.5579 28.47C50.4679 28.67 50.4229 28.89 50.4229 29.13ZM53.8429 25.305H56.5729V33H53.8429V32.145C53.2629 32.875 52.4779 33.24 51.4879 33.24C50.9279 33.24 50.4129 33.14 49.9429 32.94C49.4729 32.73 49.0629 32.44 48.7129 32.07C48.3629 31.7 48.0879 31.265 47.8879 30.765C47.6979 30.265 47.6029 29.72 47.6029 29.13C47.6029 28.58 47.6979 28.06 47.8879 27.57C48.0779 27.07 48.3429 26.635 48.6829 26.265C49.0229 25.895 49.4279 25.605 49.8979 25.395C50.3679 25.175 50.8879 25.065 51.4579 25.065C52.4179 25.065 53.2129 25.4 53.8429 26.07V25.305ZM58.5704 25.305H61.2854V26.25C62.0254 25.54 62.8554 25.185 63.7754 25.185C64.9154 25.185 65.7854 25.665 66.3854 26.625C66.9954 25.655 67.8654 25.17 68.9954 25.17C69.3554 25.17 69.6954 25.225 70.0154 25.335C70.3354 25.435 70.6104 25.6 70.8404 25.83C71.0704 26.05 71.2504 26.34 71.3804 26.7C71.5204 27.06 71.5904 27.495 71.5904 28.005V33H68.8754V29.205C68.8754 28.815 68.8454 28.495 68.7854 28.245C68.7354 27.995 68.6554 27.8 68.5454 27.66C68.4454 27.52 68.3254 27.425 68.1854 27.375C68.0454 27.325 67.8954 27.3 67.7354 27.3C66.8654 27.3 66.4304 27.935 66.4304 29.205V33H63.7154V29.205C63.7154 28.815 63.6904 28.495 63.6404 28.245C63.5904 27.985 63.5154 27.78 63.4154 27.63C63.3254 27.48 63.2054 27.38 63.0554 27.33C62.9054 27.27 62.7304 27.24 62.5304 27.24C62.3604 27.24 62.2004 27.265 62.0504 27.315C61.9004 27.365 61.7654 27.465 61.6454 27.615C61.5354 27.755 61.4454 27.955 61.3754 28.215C61.3154 28.465 61.2854 28.795 61.2854 29.205V33H58.5704V25.305ZM78.7032 27.285C78.2032 27.025 77.7132 26.895 77.2332 26.895C76.9832 26.895 76.7782 26.945 76.6182 27.045C76.4682 27.145 76.3932 27.28 76.3932 27.45C76.3932 27.54 76.4032 27.615 76.4232 27.675C76.4532 27.725 76.5082 27.775 76.5882 27.825C76.6782 27.875 76.8032 27.92 76.9632 27.96C77.1332 28 77.3532 28.05 77.6232 28.11C78.3732 28.26 78.9332 28.53 79.3032 28.92C79.6732 29.3 79.8582 29.79 79.8582 30.39C79.8582 30.84 79.7682 31.245 79.5882 31.605C79.4082 31.965 79.1582 32.27 78.8382 32.52C78.5182 32.76 78.1332 32.945 77.6832 33.075C77.2332 33.215 76.7382 33.285 76.1982 33.285C75.1582 33.285 74.1332 32.99 73.1232 32.4L74.1132 30.48C74.8732 31 75.5932 31.26 76.2732 31.26C76.5232 31.26 76.7282 31.205 76.8882 31.095C77.0482 30.985 77.1282 30.845 77.1282 30.675C77.1282 30.575 77.1132 30.495 77.0832 30.435C77.0632 30.365 77.0132 30.305 76.9332 30.255C76.8532 30.195 76.7332 30.145 76.5732 30.105C76.4232 30.055 76.2232 30.005 75.9732 29.955C75.1332 29.785 74.5432 29.535 74.2032 29.205C73.8732 28.865 73.7082 28.4 73.7082 27.81C73.7082 27.38 73.7882 26.995 73.9482 26.655C74.1082 26.305 74.3382 26.01 74.6382 25.77C74.9382 25.53 75.2982 25.345 75.7182 25.215C76.1482 25.085 76.6232 25.02 77.1432 25.02C77.9932 25.02 78.8182 25.185 79.6182 25.515L78.7032 27.285Z" fill="white"/>
</svg>
